<?xml version="1.0" encoding="utf-8"?>
<!-- Generator: Adobe Illustrator 21.0.0, SVG Export Plug-In . SVG Version: 6.00 Build 0)  -->
<svg version="1.1" id="Layer_1" xmlns="http://www.w3.org/2000/svg" xmlns:xlink="http://www.w3.org/1999/xlink" x="0px" y="0px"
	 viewBox="0 0 1366 768" style="enable-background:new 0 0 1366 768;" xml:space="preserve">
<style type="text/css">
	.st0{fill:url(#SVGID_1_);}
	.st1{fill:url(#SVGID_2_);}
	.st2{fill:url(#SVGID_3_);}
</style>
<g id="Layer_1_1_">
</g>
<g id="Layer_2">
	
		<linearGradient id="SVGID_1_" gradientUnits="userSpaceOnUse" x1="1239.4094" y1="673.7252" x2="57.6562" y2="56.4406" gradientTransform="matrix(-1 0 0 1 1374.5 0.3)">
		<stop  offset="3.440041e-02" style="stop-color:#2A97FF"/>
		<stop  offset="1" style="stop-color:#3FFFEC"/>
	</linearGradient>
	<path class="st0" d="M0,782c245,5.4,594.5-15.7,594.5-15.7h776V2c-39.1,32-89,51.3-143.5,51.3c-39.3,0-76.3-10-108.5-27.7
		c-32.3,17.7-69.2,27.7-108.6,27.7s-76.3-10-108.5-27.7c-32.2,17.7-69.2,27.7-108.5,27.7c-38.7,0-75.1-9.7-107-26.8
		c-31.9,17.1-68.3,26.8-107,26.8c-39.3,0-76.3-10-108.5-27.7c-32.2,17.6-69.2,27.7-108.5,27.7c-39.3,0-76.3-10-108.5-27.7
		c-32.2,17.6-69.2,27.7-108.5,27.7c-53,0-101.7-18.2-140.3-48.7c0.3,48.3,1.8,360.5,0,464.7C2.5,582.1-245,776.6,0,782z"/>
	
		<linearGradient id="SVGID_2_" gradientUnits="userSpaceOnUse" x1="83.1315" y1="277.0049" x2="-32.6101" y2="216.5478" gradientTransform="matrix(-1 0 0 1 1374.5 0.3)">
		<stop  offset="3.440041e-02" style="stop-color:#4AB1FF"/>
		<stop  offset="1" style="stop-color:#3FFFEC;stop-opacity:0"/>
	</linearGradient>
	<path class="st1" d="M1371,132.3c-61,0-110.5,49.5-110.5,110.5S1310,353.3,1371,353.3"/>
	
		<linearGradient id="SVGID_3_" gradientUnits="userSpaceOnUse" x1="965.8726" y1="245.6083" x2="807.0444" y2="162.645" gradientTransform="matrix(0.5077 0.8615 0.8615 -0.5077 -591.7988 -196.2869)">
		<stop  offset="0" style="stop-color:#7397FF"/>
		<stop  offset="1" style="stop-color:#3FFFEC;stop-opacity:0"/>
	</linearGradient>
	<path class="st2" d="M5,600.5l25.8-0.2c41-0.4,78.6-22.6,98.8-58.2l12.7-22.5c20.2-35.7,19.8-79.3-1-114.6l-13.1-22.2
		c-20.8-35.3-58.8-56.8-99.8-56.4l-25.8,0.2"/>
</g>
</svg>
