<?xml version="1.0" encoding="utf-8"?>
<!-- Generator: Adobe Illustrator 21.0.0, SVG Export Plug-In . SVG Version: 6.00 Build 0)  -->
<svg version="1.1" xmlns="http://www.w3.org/2000/svg" xmlns:xlink="http://www.w3.org/1999/xlink" x="0px" y="0px"
	 viewBox="0 0 1366 768" style="enable-background:new 0 0 1366 768;" xml:space="preserve">
<style type="text/css">
	.st0{fill:url(#SVGID_1_);}
	.st1{fill:url(#SVGID_2_);}
	.st2{fill:url(#SVGID_3_);}
</style>
<g id="Layer_1">
</g>
<g id="Layer_2">
	<linearGradient id="SVGID_1_" gradientUnits="userSpaceOnUse" x1="1082.6421" y1="176.1693" x2="49.5315" y2="715.8108">
		<stop  offset="3.440041e-02" style="stop-color:#2A97FF"/>
		<stop  offset="1" style="stop-color:#3FFFEC"/>
	</linearGradient>
	<path class="st0" d="M1018,151C773,146,780,2,780,2H4v764.3c39.1-32,89-51.3,143.5-51.3c39.3,0,76.3,10,108.5,27.7
		C288.3,725,325.2,715,364.6,715s76.3,10,108.5,27.7C505.3,725,542.3,715,581.6,715c38.7,0,75.1,9.7,107,26.8
		c31.9-17.1,68.3-26.8,107-26.8c39.3,0,76.3,10,108.5,27.7c32.2-17.6,69.2-27.7,108.5-27.7c39.3,0,76.3,10,108.5,27.7
		c32.2-17.6,69.2-27.7,108.5-27.7c53,0,101.7,18.2,140.3,48.7c-0.3-48.3-1.8-360.5,0-464.7C1372,186,1263,156,1018,151z"/>
	<linearGradient id="SVGID_2_" gradientUnits="userSpaceOnUse" x1="83.1339" y1="490.9996" x2="-32.6077" y2="551.4568">
		<stop  offset="3.440041e-02" style="stop-color:#4AB1FF"/>
		<stop  offset="1" style="stop-color:#3FFFEC;stop-opacity:0"/>
	</linearGradient>
	<path class="st1" d="M3.5,636c61,0,110.5-49.5,110.5-110.5S64.5,415,3.5,415"/>
	
		<linearGradient id="SVGID_3_" gradientUnits="userSpaceOnUse" x1="981.838" y1="530.702" x2="823.0098" y2="613.6653" gradientTransform="matrix(-0.5077 -0.8615 0.8615 -0.5077 1304.6667 1354.5005)">
		<stop  offset="0" style="stop-color:#7397FF"/>
		<stop  offset="1" style="stop-color:#3FFFEC;stop-opacity:0"/>
	</linearGradient>
	<path class="st2" d="M1368.6,149.8l-25.8,0.2c-41,0.4-78.6,22.6-98.8,58.2l-12.7,22.5c-20.2,35.7-19.8,79.3,1,114.6l13.1,22.2
		c20.8,35.3,58.8,56.8,99.8,56.4l25.8-0.2"/>
</g>
</svg>
